PathFileType	4	(X/Y/Z)	pose_F01_0-83.trc
DataRate	CameraRate	NumFrames	NumMarkers	Units	OrigDataRate	OrigDataStartFrame	OrigNumFrames
30	30	9	21	m	30	0	83
Frame#	Time	CHip			RHip			RKnee			RAnkle			RBigToe			RSmallToe			RHeel			LHip			LKnee			LAnkle			LBigToe			LSmallToe			LHeel			Neck			Nose			RShoulder			RElbow			RWrist			LShoulder			LElbow			LWrist			
		X1	Y1	Z1	X2	Y2	Z2	X3	Y3	Z3	X4	Y4	Z4	X5	Y5	Z5	X6	Y6	Z6	X7	Y7	Z7	X8	Y8	Z8	X9	Y9	Z9	X10	Y10	Z10	X11	Y11	Z11	X12	Y12	Z12	X13	Y13	Z13	X14	Y14	Z14	X15	Y15	Z15	X16	Y16	Z16	X17	Y17	Z17	X18	Y18	Z18	X19	Y19	Z19	X20	Y20	Z20	X21	Y21	Z21	
0	0.0	-0.19380992919225556	1.8387350682336896	-0.6509733444150251	-0.21398979205901802	1.8388383656687572	-0.5950164009499395	-0.22204612126646683	1.7060296370088865	-0.5863732871500801													-0.17858046772620373	1.8413991764275803	-0.7197951460472931	-0.18019387276914275	1.7072918908614343	-0.6770657759560901	-0.18098275124203533	1.581654295781357	-0.6428138467900225	-0.2043920770952512	1.5449431879727245	-0.6790855520495602	-0.18655650923008665	1.556201821381593	-0.7012794651819174	-0.18582910155593324	1.5658084394268055	-0.6321307841384051	-0.1844329996243208	1.9879506701544933	-0.6781006511535087	-0.20122264161946832	2.048068548281757	-0.6702853967261105	-0.21184993607084396	1.988355375939613	-0.5799590473572096	-0.22155189777957543	1.9014668438138513	-0.5270598223723705	-0.235616413933874	1.8297357613871748	-0.5238427138104176	-0.15874791221839282	1.9916179392009832	-0.7646200598544634	-1.0809832424517014	1.8214192993716678	0.14239286819389638	-0.15248550498777186	1.8374308549124778	-0.7947390434532144
1	0.03333333333333333	-0.19379406084286563	1.8421409705805893	-0.6509910133582282	-0.21238802586214786	1.8419687360466994	-0.5886307068928999	-0.22020727943791238	1.7086101331458534	-0.5713290462542862													-0.17693269624282232	1.843903821336905	-0.7138000842777623	-0.18027740230211675	1.7105474701432806	-0.6773159986705473	-0.18125780810117298	1.5833201118042248	-0.6426130017479614	-0.20458490847113553	1.5454632110572486	-0.6789684343652689	-0.18871229040679033	1.5559833868918742	-0.699143749076594	-0.1849036719897393	1.5688234495998505	-0.629134860398859	-0.18353329530685317	1.9883162295406243	-0.6751020349981848	-0.20256282073958506	2.0465035374326366	-0.6649876372938497	-0.2078997246735329	1.987267736209108	-0.5754486139169271	-0.21908574638513212	1.904842811757793	-0.5293363924607287	-0.2335015045422206	1.8333884338866084	-0.5178164414633898	-0.15655020477357	1.9915630927828292	-0.7668169488381001	-1.0885840899524624	1.8241804351386548	0.15214781029786245	-0.1525695313515869	1.839077111473337	-0.7948291889001506
2	0.06666666666666667	-0.1937781924934757	1.845546872927489	-0.6510086823014313	-0.2107862596652777	1.8450991064246416	-0.5822450128358603	-0.21836843760935792	1.7111906292828203	-0.5562848053584922													-0.1752849247594409	1.8464084662462297	-0.7078050225082315	-0.18036093183509075	1.7138030494251268	-0.6775662213850044	-0.18153286496031062	1.5849859278270926	-0.6424121567059004	-0.20477773984701986	1.5459832341417727	-0.6788513166809775	-0.190868071583494	1.5557649524021555	-0.6970080329712707	-0.18397824242354538	1.5718384597728956	-0.626138936659313	-0.18263359098938553	1.9886817889267552	-0.6721034188428608	-0.2039029998597018	2.044938526583516	-0.6596898778615888	-0.20394951327622185	1.986180096478603	-0.5709381804766447	-0.2166195949906888	1.9082187797017345	-0.531612962549087	-0.2313865951505672	1.8370411063860421	-0.511790169116362	-0.1543524973287472	1.9915082463646752	-0.7690138378217369	-1.0961849374532233	1.8269415709056418	0.16190275240182853	-0.15265355771540196	1.8407233680341963	-0.7949193343470868
3	0.1	-0.19498473605314046	1.838524869937467	-0.6448247788861379	-0.2079309237967362	1.8365456852509208	-0.5718536204732465	-0.21870310413611188	1.713325752394	-0.5470542248036413													-0.17529441854731737	1.8388270328145082	-0.7069091109059346	-0.17929635672333114	1.7123668390931348	-0.674382465478244	-0.17843237208317794	1.588359857491352	-0.6466843023554303	-0.20474846845805775	1.5460251934942393	-0.6788301962040876	-0.19056446055686638	1.5571142231679476	-0.6975735670356894	-0.18067609933326567	1.5719872409976243	-0.6299236159381189	-0.18168880574170157	1.9888000709602804	-0.6690545625441225	-0.2042226474637986	2.0456929373327783	-0.6512520390014401	-0.20086834898053804	1.9860485709813147	-0.5700543694873748	-0.2139491797565774	1.9086100505095787	-0.5221686893015145	-0.23305110204649213	1.8456994433676386	-0.5104845086933838	-0.15434755767987546	1.991177404620269	-0.7689045912621717	-1.100454432228716	1.82288801910576	0.16971565393933702	-0.15089547555207017	1.838082940892771	-0.8000124375199553
4	0.13333333333333333	-0.19325080275701673	1.8382567763448787	-0.6383301613800088	-0.20781058117403964	1.8380397872381466	-0.5719093670426904	-0.2181942395950949	1.7150334223196337	-0.5347729685330235													-0.1765460007180454	1.8378163763227673	-0.701642873810451	-0.179432786525863	1.7104863385336484	-0.6656463542768116	-0.18050378648906418	1.5879222742198533	-0.6444901184089455	-0.20443944868820374	1.544416797107506	-0.6791164158395891	-0.19038263066521935	1.5559760164148089	-0.6978419238776858	-0.18349622759742307	1.5730209494175578	-0.6315149386928643	-0.18000938915983694	1.9882895534154732	-0.6626910184992519	-0.20577171185369444	2.045398554690421	-0.6373581508801125	-0.1991911261656397	1.9836730381298713	-0.5637955037599898	-0.21076842544457094	1.9066646040371988	-0.5118636997873464	-0.23943977757717522	1.8499149740666767	-0.504675577943937	-0.15591875733390076	1.989806382150087	-0.763664691941058	-1.1048519883498613	1.8201827761584553	0.17381407619823713	-0.1533248912023243	1.836046632772493	-0.7975710686779689
5	0.16666666666666666	-0.19253668635574836	1.8389752910267372	-0.6266459388305273	-0.2068138037239019	1.8366472868735237	-0.5685226189655032	-0.21601737300781795	1.718128183138349	-0.5110251894252319													-0.17640962500291804	1.8392051225380914	-0.7015156572140314	-0.17851228955170637	1.7123376170087754	-0.6626856160815731	-0.18080412218570618	1.5865364909703703	-0.6439004244713202	-0.20638188528163134	1.545963789937706	-0.6775141573390862	-0.190490088033042	1.5562147813982221	-0.6977562795407981	-0.1818623609226799	1.5701125727763314	-0.6325926287074475	-0.17838137657788705	1.987304606216943	-0.656355196494155	-0.20629421757144648	2.0430083775656995	-0.6290799393684438	-0.1991648742341219	1.9836420195587643	-0.5635801540019565	-0.21002990585578216	1.911306586026077	-0.5097593402942576	-0.2408574308902523	1.8661149843808096	-0.5043172846107031	-0.155648336734982	1.991558011474752	-0.7518995408336682	-1.1416428970008297	1.8218095024149494	0.2318266061282573	-0.15226018869972824	1.8385321675014519	-0.7948826358801936
6	0.2	-0.19370735599983815	1.8378975291853918	-0.6209183421225419	-0.20588295923536157	1.8385019690421864	-0.5566298731616156	-0.21385512990171687	1.7224268236140694	-0.504879280338005													-0.17702924022889982	1.840206751903058	-0.692774897879657	-0.17948546510471522	1.7127604389608833	-0.6575824410727176	-0.1810113379209256	1.5847748124108338	-0.6432836665548034	-0.2067353229703061	1.5447970300343308	-0.6768144571811876	-0.1908061768271143	1.554701769057273	-0.6971070474622273	-0.18230787742754542	1.5695472879278594	-0.6319559027811196	-0.1790416517152696	1.9848939707168274	-0.6479103807490395	-0.20741237989769173	2.0443763000821553	-0.6233699046151943	-0.20045954710257333	1.9824478631286868	-0.5580118298373165	-0.20945053300160701	1.91235587240215	-0.5003476025518934	-0.24194540756799704	1.9026189353022018	-0.5128947561016407	-0.15781074398687178	1.9892294110038276	-0.7381841039279378	-0.15062476987383328	1.9120423750694027	-0.7708743287241763	-0.15649555632107637	1.8360158196318874	-0.7866275524535934
7	0.23333333333333334	-0.19669909423329993	1.8438754408533566	-0.6101946875057742	-0.20886510845542194	1.8435654273889464	-0.5373294436741322	-0.21052140522783633	1.7218700526276194	-0.4863458647630825													-0.18175291881670777	1.8421774273056177	-0.6678779084803006	-0.18206713724582377	1.7128370604243965	-0.6545187106418155	-0.1817149982099242	1.586534706746642	-0.646955207417537	-0.20580469430794063	1.5443860550616977	-0.6736268925924076	-0.19311757184728306	1.5555948726242992	-0.6946844343496522	-0.183077240523236	1.5692439468799966	-0.6351978564075682	-0.18431605923705358	1.9864880948728174	-0.6377895407052115	-0.20710570735125727	2.0437417850679696	-0.60353599380555	-1.6954128932608512	1.8914291903508105	1.1020435088112808	-0.21623868227932003	1.9100798432918225	-0.46753033831179974	-0.2261165998121337	1.944242446605873	-0.5256215594785485	-0.16159210564123483	1.988424306035374	-0.7302205374690199	-0.15439535922239514	1.9114299951387037	-0.7630819099392635	-0.1628508139597527	1.8347349928863954	-0.7759135766253826
8	0.26666666666666666	-0.19616732741582293	1.846761603399035	-0.5899069306430356	-0.21168520489378792	1.8458451223109924	-0.5296273078336577	-0.21175185559681836	1.7228586153144563	-0.4805502835158866													-0.18506473811981397	1.843282829531739	-0.659996987732831	-0.18565182281736847	1.7168903500860893	-0.6469687063116246	-0.18298696969867007	1.5865065779526804	-0.6416735518909008	-0.20601661577734348	1.545447800792645	-0.6736683422068787	-0.19318966679458857	1.5559973045110864	-0.6946926918626184	-0.1831220540800857	1.5692433536834365	-0.6351229190254246	-0.1843076794604691	1.9853479932522209	-0.6173837229738837	-0.21162594526359482	2.042241911652453	-0.590454768244455	-0.20007652547888644	1.9836191918387307	-0.529241731334023	-0.22291689458372993	1.917625104923856	-0.456439260354	-1.6479862371048881	1.8843063697146094	1.0039170886084505	-0.16491780586561255	1.987499843851727	-0.7105673304564212	-0.15728801891697633	1.908372768362344	-0.7397149971887074	-0.16793296339161579	1.8315890419417091	-0.7506087380278873
